<svg width="40" height="40" viewBox="0 0 40 40" fill="none" xmlns="http://www.w3.org/2000/svg">
    <path d="M13.017 3.333h13.95c6.083 0 9.7 3.617 9.7 9.684v13.95c0 6.066-3.617 9.683-9.684 9.683H13.018c-6.067.017-9.683-3.6-9.683-9.666V13.016c0-6.067 3.616-9.683 9.683-9.683z" fill="#2B2E41"/>
    <path d="m9.117 19.116 7.15-7.15a1.257 1.257 0 0 1 1.766 0 1.257 1.257 0 0 1 0 1.767l-5.016 5.017H30c.683 0 1.25.567 1.25 1.25A1.26 1.26 0 0 1 30 21.25H13.017l5.016 5.017a1.257 1.257 0 0 1 0 1.766c-.25.25-.566.367-.883.367-.317 0-.633-.117-.883-.367l-7.15-7.15a1.249 1.249 0 0 1 0-1.767z" fill="#fff"/>
</svg>
