<svg width="40" height="40" viewBox="0 0 40 40" fill="none" xmlns="http://www.w3.org/2000/svg">
    <path d="M26.983 3.333H13.018c-6.067 0-9.683 3.617-9.683 9.684v13.95c0 6.083 3.616 9.7 9.683 9.7h13.95c6.066 0 9.683-3.617 9.683-9.684V13.017c.017-6.067-3.6-9.684-9.666-9.684z" fill="#2B2E41"/>
    <path d="M27.955 26.187 21.768 20l6.187-6.187a1.26 1.26 0 0 0 0-1.768 1.26 1.26 0 0 0-1.768 0L20 18.232l-6.187-6.187a1.26 1.26 0 0 0-1.768 0 1.26 1.26 0 0 0 0 1.768L18.232 20l-6.187 6.187a1.26 1.26 0 0 0 0 1.768 1.26 1.26 0 0 0 1.768 0L20 21.768l6.187 6.187a1.26 1.26 0 0 0 1.768 0 1.26 1.26 0 0 0 0-1.768z" fill="#93989A"/>
</svg>
