<svg width="28" height="28" viewBox="0 0 28 28" fill="none" xmlns="http://www.w3.org/2000/svg">
    <path d="M20.284 9.918c-.405-.249-.926-.249-1.389 0l-3.241 2.057-2.2 1.308-3.183 2.057c-.405.249-.925.249-1.388 0l-2.49-1.62c-.404-.25-.694-.748-.694-1.309V9.295c0-.498.232-.997.695-1.308l2.489-1.558c.405-.25.926-.25 1.389 0l2.488 1.62c.405.25.695.748.695 1.309v2.056l2.199-1.371V7.924c0-.498-.232-.997-.694-1.308l-4.63-2.93c-.406-.248-.927-.248-1.39 0L4.195 6.679c-.463.25-.695.748-.695 1.246v5.858c0 .498.232.997.695 1.309l4.688 2.928c.405.25.926.25 1.389 0l3.183-1.994 2.199-1.37 3.183-1.995c.405-.249.926-.249 1.39 0l2.488 1.558c.405.25.695.748.695 1.309v3.115c0 .499-.232.998-.695 1.309l-2.43 1.558c-.406.25-.927.25-1.39 0l-2.489-1.558c-.405-.25-.694-.748-.694-1.309v-1.994l-2.2 1.371v2.057c0 .498.232.997.695 1.308l4.688 2.93c.405.248.926.248 1.39 0l4.687-2.93c.405-.249.695-.747.695-1.308v-5.92c0-.499-.232-.997-.695-1.309l-4.688-2.929z" fill="#8247E5"/>
</svg>
