<svg width="28" height="28" viewBox="0 0 28 28" fill="none" xmlns="http://www.w3.org/2000/svg">
    <path d="M19.833 26.542H8.167c-4.014 0-6.709-2.695-6.709-6.709V14c0-3.593 2.217-6.195 5.659-6.627a7.515 7.515 0 0 1 1.05-.081h11.666c.28 0 .642.011 1.015.07 3.442.396 5.694 3.01 5.694 6.638v5.833c0 4.014-2.695 6.709-6.709 6.709zM8.167 9.042c-.28 0-.549.023-.817.058-2.567.327-4.142 2.193-4.142 4.9v5.833c0 3.01 1.949 4.959 4.959 4.959h11.666c3.01 0 4.959-1.949 4.959-4.959V14c0-2.73-1.599-4.608-4.189-4.912a4.464 4.464 0 0 0-.77-.046H8.167z" fill="#93989A"/>
    <path d="M7.222 9.112a.879.879 0 0 1-.712-.362.857.857 0 0 1-.07-.91c.198-.397.478-.782.84-1.132l3.792-3.803a4.993 4.993 0 0 1 7.023 0l2.042 2.065a4.844 4.844 0 0 1 1.446 3.208.877.877 0 0 1-1.015.91 4.97 4.97 0 0 0-.735-.046H8.167c-.28 0-.549.023-.817.058a.437.437 0 0 1-.128.012zm1.948-1.82h10.453a3.105 3.105 0 0 0-.723-1.085L16.847 4.13c-1.249-1.237-3.29-1.237-4.55 0L9.17 7.292zM25.667 20.125h-3.5a3.207 3.207 0 0 1-3.209-3.208 3.207 3.207 0 0 1 3.209-3.209h3.5c.478 0 .875.397.875.875a.881.881 0 0 1-.875.875h-3.5a1.459 1.459 0 0 0 0 2.917h3.5c.478 0 .875.397.875.875a.881.881 0 0 1-.875.875z" fill="#93989A"/>
</svg>
